<svg id="Layer_2" data-name="Layer 2" xmlns="http://www.w3.org/2000/svg" viewBox="0 0 1042.47 657.84"><title>box-icon</title><path d="M1070.3,353.79,687.82,332.38a12.5,12.5,0,0,1-10.18-6.32L571.72,138.94A12.5,12.5,0,0,0,550,138.8L448.27,313.39a12.51,12.51,0,0,1-9.74,6.16L54.63,352.08a12.51,12.51,0,0,1-12.15-18.23L144.1,138.57a12.53,12.53,0,0,1,9.1-6.57L560,66.32a12.65,12.65,0,0,1,4,0L972.72,132a12.5,12.5,0,0,1,9.16,6.67l100.26,197A12.51,12.51,0,0,1,1070.3,353.79Z" transform="translate(-41.05 -66.16)"/><path d="M561,724,151.33,647.25a22,22,0,0,1-18-20.87l-7.63-216.14a22.3,22.3,0,0,1,20.43-23l302-25.24a43.75,43.75,0,0,0,35-23.11l72.4-136.67a2.87,2.87,0,0,1,5.41,1.34V724Z" transform="translate(-41.05 -66.16)"/><path d="M913.78,362.81,911.2,576.1a20.54,20.54,0,0,1-16.83,20L748,623,581.2,648a17.59,17.59,0,0,1-20.2-17.4V724l413-79.54a22.18,22.18,0,0,0,18-21.78V349l-78-4" transform="translate(-41.05 -66.16)"/></svg>