<svg id="Layer_2" data-name="Layer 2" xmlns="http://www.w3.org/2000/svg" viewBox="0 0 926.05 910.5"><defs><style>.cls-1,.cls-2{fill:#fff;}.cls-2{stroke:#000;stroke-miterlimit:10;stroke-width:26px;}</style></defs><title>sort-icon</title><path class="cls-1" d="M160,297H990.73c11.27,0,22.55.13,33.82,0H1026c15.69,0,30.73-13.8,30-30s-13.18-30-30-30H195.27c-11.27,0-22.55-.13-33.82,0H160c-15.69,0-30.73,13.8-30,30s13.18,30,30,30Z" transform="translate(-129.97 -155.5)"/><path class="cls-1" d="M160,641H990.73c11.27,0,22.55.13,33.82,0H1026c15.69,0,30.73-13.8,30-30s-13.18-30-30-30H195.27c-11.27,0-22.55-.13-33.82,0H160c-15.69,0-30.73,13.8-30,30s13.18,30,30,30Z" transform="translate(-129.97 -155.5)"/><path class="cls-1" d="M160,985H990.73c11.27,0,22.55.13,33.82,0H1026c15.69,0,30.73-13.8,30-30s-13.18-30-30-30H195.27c-11.27,0-22.55-.13-33.82,0H160c-15.69,0-30.73,13.8-30,30s13.18,30,30,30Z" transform="translate(-129.97 -155.5)"/><circle class="cls-2" cx="236.28" cy="113.75" r="100.75"/><circle class="cls-2" cx="691.28" cy="453.75" r="100.75"/><circle class="cls-2" cx="464.28" cy="796.75" r="100.75"/></svg>