<svg id="Layer_1" data-name="Layer 1" xmlns="http://www.w3.org/2000/svg" viewBox="0 0 295.34 265"><defs><style>.cls-1{fill:#f9f9f9;}</style></defs><title>vancoast-watermark</title><path class="cls-1" d="M256.49,11.65A51.42,51.42,0,0,0,205.13,63a50.71,50.71,0,0,0,1.53,11.75A92.78,92.78,0,0,0,211,88a213.19,213.19,0,0,0,16.65,31.56l0,0,28.79,44.28,28.76-44.22.06-.11A213.19,213.19,0,0,0,302,88a92.78,92.78,0,0,0,4.36-13.22A50.71,50.71,0,0,0,307.85,63,51.41,51.41,0,0,0,256.49,11.65Zm-20,87.94a170.83,170.83,0,0,1-8.75-18.14c-3-7.58-4.57-13.78-4.57-18.44a33.39,33.39,0,0,1,33.36-33.36,31.44,31.44,0,0,1,4.68.33C263,70.59,244.78,92,236.45,99.59Zm37.39,4.51-17.42,29.3-13.06-22c8.88-7.43,31.58-30.91,31.43-76.33A33.37,33.37,0,0,1,289.86,63C289.86,69.13,287.08,81.23,273.84,104.1Z" transform="translate(-12.51 -11.28)"/><path class="cls-1" d="M235,190c-.71-1.12-71.24-111.84-101.44-154.76a56.78,56.78,0,0,0-19.71-17.45,55.18,55.18,0,0,0-12.27-4.75,54.52,54.52,0,0,0-13.28-1.64h-.1l-75.65-.14L180.58,270.45l3.79,5.83,52.08-83.93ZM43.69,27.94l43.66-.13h.12c5.09,0,11.7,2,18.16,5.4a39.48,39.48,0,0,1,13.64,12.08L216.71,191.2,184.1,243.64Z" transform="translate(-12.51 -11.28)"/></svg>